# Blender v3.2.1 OBJ File: ''
# www.blender.org
mtllib saturnPlanet.mtl
o RingsBottom_Plane.001
v 22.736814 0.000000 114.305687
v 6.039314 0.000000 61.318359
v 12.020499 0.000000 60.431141
v 11.423382 0.000000 115.983879
v 33.831249 0.000000 111.526672
v 12.020499 0.000000 60.431141
v 17.885908 0.000000 58.961926
v 22.736814 0.000000 114.305687
v 44.599842 0.000000 107.673607
v 17.885908 0.000000 58.961926
v 23.579054 0.000000 56.924892
v 33.831249 0.000000 111.526672
v 54.938976 0.000000 102.783569
v 23.579054 0.000000 56.924892
v 29.045139 0.000000 54.339626
v 44.599842 0.000000 107.673607
v 64.748985 0.000000 96.903679
v 29.045139 0.000000 54.339626
v 34.231499 0.000000 51.231045
v 54.938976 0.000000 102.783569
v 73.935432 0.000000 90.090538
v 34.231499 0.000000 51.231045
v 39.088188 0.000000 47.629066
v 64.748985 0.000000 96.903679
v 11.423382 0.000000 115.983879
v 0.000003 0.000000 61.615040
v 6.039314 0.000000 61.318359
v -0.000006 0.000000 116.545036
v 82.409813 0.000000 82.409805
v 39.088188 0.000000 47.629066
v 43.568420 0.000000 43.568420
v 73.935432 0.000000 90.090538
v -34.231495 0.000000 51.231030
v -73.935417 0.000000 90.090530
v -39.088177 0.000000 47.629066
v -64.748978 0.000000 96.903648
v -29.045135 0.000000 54.339611
v -64.748978 0.000000 96.903648
v -34.231495 0.000000 51.231030
v -54.938961 0.000000 102.783531
v -23.579048 0.000000 56.924892
v -54.938961 0.000000 102.783531
v -29.045135 0.000000 54.339611
v -44.599834 0.000000 107.673584
v -17.885906 0.000000 58.961926
v -44.599834 0.000000 107.673584
v -23.579048 0.000000 56.924892
v -33.831245 0.000000 111.526649
v -12.020497 0.000000 60.431129
v -33.831245 0.000000 111.526649
v -17.885906 0.000000 58.961926
v -22.736807 0.000000 114.305656
v -6.039342 0.000000 61.318348
v -22.736807 0.000000 114.305656
v -12.020497 0.000000 60.431129
v -11.423433 0.000000 115.983849
v -39.088177 0.000000 47.629066
v -82.409790 0.000000 82.409790
v -43.568417 0.000000 43.568409
v -73.935417 0.000000 90.090530
v 0.000003 0.000000 61.615040
v -11.423433 0.000000 115.983849
v -6.039342 0.000000 61.318348
v -0.000006 0.000000 116.545036
v -60.431129 0.000000 12.020490
v -115.983864 0.000000 11.423438
v -61.318348 0.000000 6.039337
v -114.305679 0.000000 22.736799
v -58.961914 0.000000 17.885900
v -114.305679 0.000000 22.736799
v -60.431129 0.000000 12.020490
v -111.526649 0.000000 33.831249
v -56.924877 0.000000 23.579065
v -111.526649 0.000000 33.831249
v -58.961914 0.000000 17.885900
v -107.673576 0.000000 44.599865
v -54.339611 0.000000 29.045135
v -107.673576 0.000000 44.599865
v -56.924877 0.000000 23.579065
v -102.783562 0.000000 54.938976
v -51.231037 0.000000 34.231483
v -102.783562 0.000000 54.938976
v -54.339611 0.000000 29.045135
v -96.903687 0.000000 64.748962
v -47.629070 0.000000 39.088165
v -96.903687 0.000000 64.748962
v -51.231037 0.000000 34.231483
v -90.090553 0.000000 73.935402
v -61.318348 0.000000 6.039337
v -116.545044 0.000000 0.000031
v -61.615040 0.000000 0.000000
v -115.983864 0.000000 11.423438
v -43.568417 0.000000 43.568409
v -90.090553 0.000000 73.935402
v -47.629070 0.000000 39.088165
v -82.409790 0.000000 82.409790
v -47.629078 0.000000 -39.088173
v -96.903687 0.000000 -64.748947
v -90.090569 0.000000 -73.935394
v -51.231045 0.000000 -34.231483
v -51.231045 0.000000 -34.231483
v -102.783562 0.000000 -54.938946
v -96.903687 0.000000 -64.748947
v -54.339619 0.000000 -29.045126
v -54.339619 0.000000 -29.045126
v -107.673599 0.000000 -44.599834
v -102.783562 0.000000 -54.938946
v -56.924885 0.000000 -23.579050
v -56.924885 0.000000 -23.579050
v -111.526665 0.000000 -33.831234
v -107.673599 0.000000 -44.599834
v -58.961914 0.000000 -17.885908
v -58.961914 0.000000 -17.885908
v -114.305664 0.000000 -22.736799
v -111.526665 0.000000 -33.831234
v -60.431129 0.000000 -12.020493
v -60.431129 0.000000 -12.020493
v -115.983864 0.000000 -11.423398
v -114.305664 0.000000 -22.736799
v -61.318348 0.000000 -6.039322
v -43.568428 0.000000 -43.568413
v -90.090569 0.000000 -73.935394
v -82.409805 0.000000 -82.409782
v -47.629078 0.000000 -39.088173
v -61.318348 0.000000 -6.039322
v -116.545044 0.000000 0.000031
v -115.983864 0.000000 -11.423398
v -61.615040 0.000000 0.000000
v -6.039333 0.000000 -61.318356
v -22.736828 0.000000 -114.305679
v -11.423424 0.000000 -115.983864
v -12.020500 0.000000 -60.431129
v -12.020500 0.000000 -60.431129
v -33.831249 0.000000 -111.526649
v -22.736828 0.000000 -114.305679
v -17.885908 0.000000 -58.961922
v -17.885908 0.000000 -58.961922
v -44.599865 0.000000 -107.673576
v -33.831249 0.000000 -111.526649
v -23.579063 0.000000 -56.924885
v -23.579063 0.000000 -56.924885
v -54.938972 0.000000 -102.783546
v -44.599865 0.000000 -107.673576
v -29.045141 0.000000 -54.339611
v -29.045141 0.000000 -54.339611
v -64.748978 0.000000 -96.903656
v -54.938972 0.000000 -102.783546
v -34.231487 0.000000 -51.231030
v -34.231487 0.000000 -51.231030
v -73.935417 0.000000 -90.090538
v -64.748978 0.000000 -96.903656
v -39.088177 0.000000 -47.629070
v -0.000003 0.000000 -61.615047
v -11.423424 0.000000 -115.983864
v -0.000009 0.000000 -116.545044
v -6.039333 0.000000 -61.318356
v -39.088177 0.000000 -47.629070
v -82.409805 0.000000 -82.409782
v -73.935417 0.000000 -90.090538
v -43.568428 0.000000 -43.568413
v 73.935402 0.000000 -90.090553
v 34.231487 0.000000 -51.231037
v 64.748955 0.000000 -96.903679
v 39.088177 0.000000 -47.629074
v 64.748955 0.000000 -96.903679
v 29.045130 0.000000 -54.339619
v 54.938946 0.000000 -102.783562
v 34.231487 0.000000 -51.231037
v 54.938946 0.000000 -102.783562
v 23.579058 0.000000 -56.924885
v 44.599854 0.000000 -107.673584
v 29.045130 0.000000 -54.339619
v 44.599854 0.000000 -107.673584
v 17.885902 0.000000 -58.961922
v 33.831234 0.000000 -111.526665
v 23.579058 0.000000 -56.924885
v 33.831234 0.000000 -111.526665
v 12.020496 0.000000 -60.431133
v 22.736801 0.000000 -114.305664
v 17.885902 0.000000 -58.961922
v 22.736801 0.000000 -114.305664
v 6.039328 0.000000 -61.318356
v 11.423405 0.000000 -115.983864
v 12.020496 0.000000 -60.431133
v 82.409782 0.000000 -82.409798
v 39.088177 0.000000 -47.629074
v 73.935402 0.000000 -90.090553
v 43.568409 0.000000 -43.568420
v 11.423405 0.000000 -115.983864
v -0.000003 0.000000 -61.615047
v -0.000009 0.000000 -116.545044
v 6.039328 0.000000 -61.318356
v 115.983879 0.000000 -11.423413
v 60.431141 0.000000 -12.020495
v 114.305679 0.000000 -22.736805
v 61.318359 0.000000 -6.039331
v 114.305679 0.000000 -22.736805
v 58.961926 0.000000 -17.885910
v 111.526649 0.000000 -33.831264
v 60.431141 0.000000 -12.020495
v 111.526649 0.000000 -33.831264
v 56.924892 0.000000 -23.579054
v 107.673576 0.000000 -44.599857
v 58.961926 0.000000 -17.885910
v 107.673576 0.000000 -44.599857
v 54.339619 0.000000 -29.045134
v 102.783546 0.000000 -54.938972
v 56.924892 0.000000 -23.579054
v 102.783546 0.000000 -54.938972
v 51.231045 0.000000 -34.231483
v 96.903664 0.000000 -64.748970
v 54.339619 0.000000 -29.045134
v 96.903664 0.000000 -64.748970
v 47.629070 0.000000 -39.088173
v 90.090546 0.000000 -73.935410
v 51.231045 0.000000 -34.231483
v 116.545059 0.000000 -0.000006
v 61.318359 0.000000 -6.039331
v 115.983879 0.000000 -11.423413
v 61.615051 0.000000 0.000000
v 90.090546 0.000000 -73.935410
v 43.568409 0.000000 -43.568420
v 82.409782 0.000000 -82.409798
v 47.629070 0.000000 -39.088173
v 96.903664 0.000000 64.748985
v 47.629078 0.000000 39.088173
v 51.231037 0.000000 34.231495
v 90.090561 0.000000 73.935417
v 102.783569 0.000000 54.938953
v 51.231037 0.000000 34.231495
v 54.339626 0.000000 29.045130
v 96.903664 0.000000 64.748985
v 107.673584 0.000000 44.599873
v 54.339626 0.000000 29.045130
v 56.924892 0.000000 23.579065
v 102.783569 0.000000 54.938953
v 111.526665 0.000000 33.831280
v 56.924892 0.000000 23.579065
v 58.961922 0.000000 17.885925
v 107.673584 0.000000 44.599873
v 114.305687 0.000000 22.736816
v 58.961922 0.000000 17.885925
v 60.431133 0.000000 12.020502
v 111.526665 0.000000 33.831280
v 115.983879 0.000000 11.423395
v 60.431133 0.000000 12.020502
v 61.318359 0.000000 6.039337
v 114.305687 0.000000 22.736816
v 90.090561 0.000000 73.935417
v 43.568420 0.000000 43.568420
v 47.629078 0.000000 39.088173
v 82.409813 0.000000 82.409805
v 115.983879 0.000000 11.423395
v 61.615051 0.000000 0.000000
v 116.545059 0.000000 -0.000006
v 61.318359 0.000000 6.039337
vt 1.000000 0.031250
vt 0.000000 0.015625
vt 0.000000 0.031250
vt 1.000000 0.015625
vt 1.000000 0.046875
vt 0.000000 0.031250
vt 0.000000 0.046875
vt 1.000000 0.031250
vt 1.000000 0.062500
vt 0.000000 0.046875
vt 0.000000 0.062500
vt 1.000000 0.046875
vt 1.000000 0.078125
vt 0.000000 0.062500
vt 0.000000 0.078125
vt 1.000000 0.062500
vt 1.000000 0.093750
vt 0.000000 0.078125
vt 0.000000 0.093750
vt 1.000000 0.078125
vt 1.000000 0.109375
vt 0.000000 0.093750
vt 0.000000 0.109375
vt 1.000000 0.093750
vt 1.000000 0.015625
vt 0.000000 0.000000
vt 0.000000 0.015625
vt 1.000000 0.000000
vt 1.000000 0.125000
vt 0.000000 0.109375
vt 0.000000 0.125000
vt 1.000000 0.109375
vt 0.000000 0.906250
vt 1.000000 0.890625
vt 0.000000 0.890625
vt 1.000000 0.906250
vt 0.000000 0.921875
vt 1.000000 0.906250
vt 0.000000 0.906250
vt 1.000000 0.921875
vt 0.000000 0.937500
vt 1.000000 0.921875
vt 0.000000 0.921875
vt 1.000000 0.937500
vt 0.000000 0.953125
vt 1.000000 0.937500
vt 0.000000 0.937500
vt 1.000000 0.953125
vt 0.000000 0.968750
vt 1.000000 0.953125
vt 0.000000 0.953125
vt 1.000000 0.968750
vt 0.000000 0.984375
vt 1.000000 0.968750
vt 0.000000 0.968750
vt 1.000000 0.984375
vt 0.000000 0.890625
vt 1.000000 0.875000
vt 0.000000 0.875000
vt 1.000000 0.890625
vt 0.000000 1.000000
vt 1.000000 0.984375
vt 0.000000 0.984375
vt 1.000000 1.000000
vt 0.000000 0.781250
vt 1.000000 0.765625
vt 0.000000 0.765625
vt 0.000000 0.796875
vt 1.000000 0.781250
vt 0.000000 0.781250
vt 1.000000 0.796875
vt 0.000000 0.812500
vt 1.000000 0.796875
vt 0.000000 0.796875
vt 1.000000 0.812500
vt 0.000000 0.828125
vt 1.000000 0.812500
vt 0.000000 0.812500
vt 1.000000 0.828125
vt 0.000000 0.843750
vt 1.000000 0.828125
vt 0.000000 0.828125
vt 1.000000 0.843750
vt 0.000000 0.859375
vt 1.000000 0.843750
vt 0.000000 0.843750
vt 1.000000 0.859375
vt 0.000000 0.765625
vt 1.000000 0.750000
vt 0.000000 0.750000
vt 1.000000 0.765625
vt 0.000000 0.875000
vt 1.000000 0.859375
vt 0.000000 0.859375
vt 1.000000 0.875000
vt 0.000000 0.640625
vt 1.000000 0.656250
vt 1.000000 0.640625
vt 0.000000 0.656250
vt 0.000000 0.656250
vt 1.000000 0.671875
vt 1.000000 0.656250
vt 0.000000 0.671875
vt 0.000000 0.671875
vt 1.000000 0.687500
vt 1.000000 0.671875
vt 0.000000 0.687500
vt 0.000000 0.687500
vt 1.000000 0.703125
vt 1.000000 0.687500
vt 0.000000 0.703125
vt 0.000000 0.703125
vt 1.000000 0.718750
vt 1.000000 0.703125
vt 0.000000 0.718750
vt 0.000000 0.718750
vt 1.000000 0.734375
vt 1.000000 0.718750
vt 0.000000 0.734375
vt 0.000000 0.625000
vt 1.000000 0.640625
vt 1.000000 0.625000
vt 0.000000 0.640625
vt 0.000000 0.734375
vt 1.000000 0.750000
vt 1.000000 0.734375
vt 0.000000 0.750000
vt 0.000000 0.515625
vt 1.000000 0.531250
vt 1.000000 0.515625
vt 0.000000 0.531250
vt 0.000000 0.531250
vt 1.000000 0.546875
vt 1.000000 0.531250
vt 0.000000 0.546875
vt 0.000000 0.546875
vt 1.000000 0.562500
vt 1.000000 0.546875
vt 0.000000 0.562500
vt 0.000000 0.562500
vt 1.000000 0.578125
vt 1.000000 0.562500
vt 0.000000 0.578125
vt 0.000000 0.578125
vt 0.000000 0.593750
vt 1.000000 0.593750
vt 0.000000 0.593750
vt 1.000000 0.609375
vt 1.000000 0.593750
vt 0.000000 0.609375
vt 0.000000 0.500000
vt 1.000000 0.515625
vt 1.000000 0.500000
vt 0.000000 0.515625
vt 0.000000 0.609375
vt 1.000000 0.625000
vt 1.000000 0.609375
vt 0.000000 0.625000
vt 1.000000 0.390625
vt 0.000000 0.406250
vt 1.000000 0.406250
vt 0.000000 0.390625
vt 1.000000 0.406250
vt 0.000000 0.421875
vt 1.000000 0.421875
vt 0.000000 0.406250
vt 1.000000 0.421875
vt 0.000000 0.437500
vt 1.000000 0.437500
vt 0.000000 0.421875
vt 1.000000 0.437500
vt 0.000000 0.453125
vt 1.000000 0.453125
vt 0.000000 0.437500
vt 1.000000 0.453125
vt 0.000000 0.468750
vt 1.000000 0.468750
vt 0.000000 0.453125
vt 1.000000 0.468750
vt 0.000000 0.484375
vt 1.000000 0.484375
vt 0.000000 0.468750
vt 1.000000 0.375000
vt 0.000000 0.390625
vt 1.000000 0.390625
vt 0.000000 0.375000
vt 1.000000 0.484375
vt 0.000000 0.500000
vt 1.000000 0.500000
vt 0.000000 0.484375
vt 1.000000 0.265625
vt 0.000000 0.281250
vt 1.000000 0.281250
vt 0.000000 0.265625
vt 1.000000 0.281250
vt 0.000000 0.296875
vt 1.000000 0.296875
vt 0.000000 0.281250
vt 1.000000 0.296875
vt 0.000000 0.312500
vt 1.000000 0.312500
vt 0.000000 0.296875
vt 1.000000 0.312500
vt 0.000000 0.328125
vt 1.000000 0.328125
vt 0.000000 0.312500
vt 1.000000 0.328125
vt 0.000000 0.343750
vt 1.000000 0.343750
vt 0.000000 0.328125
vt 1.000000 0.343750
vt 0.000000 0.359375
vt 1.000000 0.359375
vt 0.000000 0.343750
vt 1.000000 0.250000
vt 0.000000 0.265625
vt 1.000000 0.265625
vt 0.000000 0.250000
vt 1.000000 0.359375
vt 0.000000 0.375000
vt 1.000000 0.375000
vt 0.000000 0.359375
vt 1.000000 0.156250
vt 0.000000 0.140625
vt 0.000000 0.156250
vt 1.000000 0.171875
vt 0.000000 0.156250
vt 0.000000 0.171875
vt 1.000000 0.156250
vt 1.000000 0.187500
vt 0.000000 0.171875
vt 0.000000 0.187500
vt 1.000000 0.171875
vt 1.000000 0.203125
vt 0.000000 0.187500
vt 0.000000 0.203125
vt 1.000000 0.187500
vt 1.000000 0.218750
vt 0.000000 0.203125
vt 0.000000 0.218750
vt 1.000000 0.203125
vt 1.000000 0.234375
vt 0.000000 0.218750
vt 0.000000 0.234375
vt 1.000000 0.218750
vt 1.000000 0.140625
vt 0.000000 0.125000
vt 0.000000 0.140625
vt 1.000000 0.125000
vt 1.000000 0.234375
vt 0.000000 0.250000
vt 1.000000 0.250000
vt 0.000000 0.234375
vt 1.000000 0.781250
vt 1.000000 0.578125
vt 1.000000 0.140625
vn 0.0000 -1.0000 0.0000
usemtl Materiais
s off
f 1/1/1 2/2/1 3/3/1
f 1/1/1 4/4/1 2/2/1
f 5/5/1 6/6/1 7/7/1
f 5/5/1 8/8/1 6/6/1
f 9/9/1 10/10/1 11/11/1
f 9/9/1 12/12/1 10/10/1
f 13/13/1 14/14/1 15/15/1
f 13/13/1 16/16/1 14/14/1
f 17/17/1 18/18/1 19/19/1
f 17/17/1 20/20/1 18/18/1
f 21/21/1 22/22/1 23/23/1
f 21/21/1 24/24/1 22/22/1
f 25/25/1 26/26/1 27/27/1
f 25/25/1 28/28/1 26/26/1
f 29/29/1 30/30/1 31/31/1
f 29/29/1 32/32/1 30/30/1
f 33/33/1 34/34/1 35/35/1
f 36/36/1 34/34/1 33/33/1
f 37/37/1 38/38/1 39/39/1
f 40/40/1 38/38/1 37/37/1
f 41/41/1 42/42/1 43/43/1
f 44/44/1 42/42/1 41/41/1
f 45/45/1 46/46/1 47/47/1
f 48/48/1 46/46/1 45/45/1
f 49/49/1 50/50/1 51/51/1
f 52/52/1 50/50/1 49/49/1
f 53/53/1 54/54/1 55/55/1
f 56/56/1 54/54/1 53/53/1
f 57/57/1 58/58/1 59/59/1
f 60/60/1 58/58/1 57/57/1
f 61/61/1 62/62/1 63/63/1
f 64/64/1 62/62/1 61/61/1
f 65/65/1 66/66/1 67/67/1
f 69/68/1 70/69/1 71/70/1
f 72/71/1 70/69/1 69/68/1
f 73/72/1 74/73/1 75/74/1
f 76/75/1 74/73/1 73/72/1
f 77/76/1 78/77/1 79/78/1
f 80/79/1 78/77/1 77/76/1
f 81/80/1 82/81/1 83/82/1
f 84/83/1 82/81/1 81/80/1
f 85/84/1 86/85/1 87/86/1
f 88/87/1 86/85/1 85/84/1
f 89/88/1 90/89/1 91/90/1
f 89/88/1 92/91/1 90/89/1
f 93/92/1 94/93/1 95/94/1
f 96/95/1 94/93/1 93/92/1
f 97/96/1 98/97/1 99/98/1
f 97/96/1 100/99/1 98/97/1
f 101/100/1 102/101/1 103/102/1
f 101/100/1 104/103/1 102/101/1
f 105/104/1 106/105/1 107/106/1
f 105/104/1 108/107/1 106/105/1
f 109/108/1 110/109/1 111/110/1
f 109/108/1 112/111/1 110/109/1
f 113/112/1 114/113/1 115/114/1
f 113/112/1 116/115/1 114/113/1
f 117/116/1 118/117/1 119/118/1
f 120/119/1 118/117/1 117/116/1
f 121/120/1 122/121/1 123/122/1
f 121/120/1 124/123/1 122/121/1
f 125/124/1 126/125/1 127/126/1
f 128/127/1 126/125/1 125/124/1
f 129/128/1 130/129/1 131/130/1
f 129/128/1 132/131/1 130/129/1
f 133/132/1 134/133/1 135/134/1
f 133/132/1 136/135/1 134/133/1
f 137/136/1 138/137/1 139/138/1
f 137/136/1 140/139/1 138/137/1
f 141/140/1 142/141/1 143/142/1
f 141/140/1 144/143/1 142/141/1
f 145/144/1 148/145/1 146/146/1
f 149/147/1 150/148/1 151/149/1
f 149/147/1 152/150/1 150/148/1
f 153/151/1 154/152/1 155/153/1
f 153/151/1 156/154/1 154/152/1
f 157/155/1 158/156/1 159/157/1
f 157/155/1 160/158/1 158/156/1
f 161/159/1 162/160/1 163/161/1
f 164/162/1 162/160/1 161/159/1
f 165/163/1 166/164/1 167/165/1
f 168/166/1 166/164/1 165/163/1
f 169/167/1 170/168/1 171/169/1
f 172/170/1 170/168/1 169/167/1
f 173/171/1 174/172/1 175/173/1
f 176/174/1 174/172/1 173/171/1
f 177/175/1 178/176/1 179/177/1
f 180/178/1 178/176/1 177/175/1
f 181/179/1 182/180/1 183/181/1
f 184/182/1 182/180/1 181/179/1
f 185/183/1 186/184/1 187/185/1
f 188/186/1 186/184/1 185/183/1
f 189/187/1 190/188/1 191/189/1
f 192/190/1 190/188/1 189/187/1
f 193/191/1 194/192/1 195/193/1
f 193/191/1 196/194/1 194/192/1
f 197/195/1 198/196/1 199/197/1
f 200/198/1 198/196/1 197/195/1
f 201/199/1 202/200/1 203/201/1
f 204/202/1 202/200/1 201/199/1
f 205/203/1 206/204/1 207/205/1
f 208/206/1 206/204/1 205/203/1
f 209/207/1 210/208/1 211/209/1
f 212/210/1 210/208/1 209/207/1
f 213/211/1 214/212/1 215/213/1
f 216/214/1 214/212/1 213/211/1
f 217/215/1 218/216/1 219/217/1
f 217/215/1 220/218/1 218/216/1
f 221/219/1 222/220/1 223/221/1
f 224/222/1 222/220/1 221/219/1
f 225/223/1 226/224/1 227/225/1
f 229/226/1 230/227/1 231/228/1
f 229/226/1 232/229/1 230/227/1
f 233/230/1 234/231/1 235/232/1
f 233/230/1 236/233/1 234/231/1
f 237/234/1 238/235/1 239/236/1
f 237/234/1 240/237/1 238/235/1
f 241/238/1 242/239/1 243/240/1
f 241/238/1 244/241/1 242/239/1
f 245/242/1 246/243/1 247/244/1
f 248/245/1 246/243/1 245/242/1
f 249/246/1 250/247/1 251/248/1
f 249/246/1 252/249/1 250/247/1
f 253/250/1 254/251/1 255/252/1
f 253/250/1 256/253/1 254/251/1
s 1
f 65/65/1 68/254/1 66/66/1
f 145/144/1 146/146/1 147/255/1
f 225/223/1 228/256/1 226/224/1
